<svg xmlns="http://www.w3.org/2000/svg" width="760" height="180" viewBox="0 0 760 180" role="img" aria-label="TeamFlow Pro">
  <defs>
    <linearGradient id="iconGrad" x1="0" y1="0" x2="1" y2="1">
      <stop offset="0%" stop-color="#4F46E5"/>
      <stop offset="100%" stop-color="#8B5CF6"/>
    </linearGradient>
    <linearGradient id="wordGrad" x1="0" y1="0" x2="1" y2="0">
      <stop offset="0%" stop-color="#1E293B"/>
      <stop offset="100%" stop-color="#334155"/>
    </linearGradient>
  </defs>

  <rect x="8" y="18" width="144" height="144" rx="36" fill="url(#iconGrad)"/>
  <path d="M48 60h64c4.4 0 8 3.6 8 8v44c0 4.4-3.6 8-8 8H48c-4.4 0-8-3.6-8-8V68c0-4.4 3.6-8 8-8z" fill="none" stroke="#fff" stroke-width="10"/>
  <path d="M54 80h52M54 94h52M54 108h34" stroke="#fff" stroke-width="8" stroke-linecap="round"/>

  <text x="180" y="93" font-family="Kanit, Segoe UI, Arial, sans-serif" font-size="62" font-weight="800" fill="url(#wordGrad)">TeamFlow</text>
  <rect x="500" y="44" width="142" height="56" rx="18" fill="url(#iconGrad)"/>
  <text x="535" y="82" font-family="Kanit, Segoe UI, Arial, sans-serif" font-size="34" font-weight="800" fill="#fff">PRO</text>

  <text x="180" y="134" font-family="Kanit, Segoe UI, Arial, sans-serif" font-size="20" font-weight="500" fill="#64748B" letter-spacing="2">TEAM MANAGEMENT PLATFORM</text>
</svg>
